<svg id="visual" viewBox="0 0 960 200" width="960" height="200" xmlns="http://www.w3.org/2000/svg" xmlns:xlink="http://www.w3.org/1999/xlink" version="1.1"><path d="M0 116L9.3 120.8C18.7 125.7 37.3 135.3 56.2 134.2C75 133 94 121 112.8 122C131.7 123 150.3 137 169.2 136.5C188 136 207 121 225.8 115.7C244.7 110.3 263.3 114.7 282.2 114.5C301 114.3 320 109.7 338.8 111.8C357.7 114 376.3 123 395.2 133.5C414 144 433 156 451.8 153.8C470.7 151.7 489.3 135.3 508.2 132.8C527 130.3 546 141.7 564.8 147.7C583.7 153.7 602.3 154.3 621.2 149.2C640 144 659 133 677.8 131.8C696.7 130.7 715.3 139.3 734.2 141.2C753 143 772 138 790.8 134.5C809.7 131 828.3 129 847.2 127.5C866 126 885 125 903.8 132.3C922.7 139.7 941.3 155.3 950.7 163.2L960 171L960 0L950.7 0C941.3 0 922.7 0 903.8 0C885 0 866 0 847.2 0C828.3 0 809.7 0 790.8 0C772 0 753 0 734.2 0C715.3 0 696.7 0 677.8 0C659 0 640 0 621.2 0C602.3 0 583.7 0 564.8 0C546 0 527 0 508.2 0C489.3 0 470.7 0 451.8 0C433 0 414 0 395.2 0C376.3 0 357.7 0 338.8 0C320 0 301 0 282.2 0C263.3 0 244.7 0 225.8 0C207 0 188 0 169.2 0C150.3 0 131.7 0 112.8 0C94 0 75 0 56.2 0C37.3 0 18.7 0 9.3 0L0 0Z" fill="#202731"></path><path d="M0 145L9.3 137.7C18.7 130.3 37.3 115.7 56.2 108.2C75 100.7 94 100.3 112.8 107.3C131.7 114.3 150.3 128.7 169.2 128C188 127.3 207 111.7 225.8 111.2C244.7 110.7 263.3 125.3 282.2 125.8C301 126.3 320 112.7 338.8 114.8C357.7 117 376.3 135 395.2 136C414 137 433 121 451.8 121.2C470.7 121.3 489.3 137.7 508.2 136.3C527 135 546 116 564.8 106C583.7 96 602.3 95 621.2 95.8C640 96.7 659 99.3 677.8 101.3C696.7 103.3 715.3 104.7 734.2 107.8C753 111 772 116 790.8 115.2C809.7 114.3 828.3 107.7 847.2 103.7C866 99.7 885 98.3 903.8 104.5C922.7 110.7 941.3 124.3 950.7 131.2L960 138L960 0L950.7 0C941.3 0 922.7 0 903.8 0C885 0 866 0 847.2 0C828.3 0 809.7 0 790.8 0C772 0 753 0 734.2 0C715.3 0 696.7 0 677.8 0C659 0 640 0 621.2 0C602.3 0 583.7 0 564.8 0C546 0 527 0 508.2 0C489.3 0 470.7 0 451.8 0C433 0 414 0 395.2 0C376.3 0 357.7 0 338.8 0C320 0 301 0 282.2 0C263.3 0 244.7 0 225.8 0C207 0 188 0 169.2 0C150.3 0 131.7 0 112.8 0C94 0 75 0 56.2 0C37.3 0 18.7 0 9.3 0L0 0Z" fill="#292e42"></path><path d="M0 103L9.3 101.3C18.7 99.7 37.3 96.3 56.2 97.7C75 99 94 105 112.8 112C131.7 119 150.3 127 169.2 126.8C188 126.7 207 118.3 225.8 110C244.7 101.7 263.3 93.3 282.2 96C301 98.7 320 112.3 338.8 118.8C357.7 125.3 376.3 124.7 395.2 122.5C414 120.3 433 116.7 451.8 111.2C470.7 105.7 489.3 98.3 508.2 97.7C527 97 546 103 564.8 106.5C583.7 110 602.3 111 621.2 111.8C640 112.7 659 113.3 677.8 117.8C696.7 122.3 715.3 130.7 734.2 134.2C753 137.7 772 136.3 790.8 133C809.7 129.7 828.3 124.3 847.2 115.8C866 107.3 885 95.7 903.8 94.7C922.7 93.7 941.3 103.3 950.7 108.2L960 113L960 0L950.7 0C941.3 0 922.7 0 903.8 0C885 0 866 0 847.2 0C828.3 0 809.7 0 790.8 0C772 0 753 0 734.2 0C715.3 0 696.7 0 677.8 0C659 0 640 0 621.2 0C602.3 0 583.7 0 564.8 0C546 0 527 0 508.2 0C489.3 0 470.7 0 451.8 0C433 0 414 0 395.2 0C376.3 0 357.7 0 338.8 0C320 0 301 0 282.2 0C263.3 0 244.7 0 225.8 0C207 0 188 0 169.2 0C150.3 0 131.7 0 112.8 0C94 0 75 0 56.2 0C37.3 0 18.7 0 9.3 0L0 0Z" fill="#3a3450"></path><path d="M0 102L9.3 104.8C18.7 107.7 37.3 113.3 56.2 108.8C75 104.3 94 89.7 112.8 88.8C131.7 88 150.3 101 169.2 102.2C188 103.3 207 92.7 225.8 91.8C244.7 91 263.3 100 282.2 106.8C301 113.7 320 118.3 338.8 113.3C357.7 108.3 376.3 93.7 395.2 89.3C414 85 433 91 451.8 97.8C470.7 104.7 489.3 112.3 508.2 111.8C527 111.3 546 102.7 564.8 97.5C583.7 92.3 602.3 90.7 621.2 95.8C640 101 659 113 677.8 117.2C696.7 121.3 715.3 117.7 734.2 113.5C753 109.3 772 104.7 790.8 103.2C809.7 101.7 828.3 103.3 847.2 100.3C866 97.3 885 89.7 903.8 87.2C922.7 84.7 941.3 87.3 950.7 88.7L960 90L960 0L950.7 0C941.3 0 922.7 0 903.8 0C885 0 866 0 847.2 0C828.3 0 809.7 0 790.8 0C772 0 753 0 734.2 0C715.3 0 696.7 0 677.8 0C659 0 640 0 621.2 0C602.3 0 583.7 0 564.8 0C546 0 527 0 508.2 0C489.3 0 470.7 0 451.8 0C433 0 414 0 395.2 0C376.3 0 357.7 0 338.8 0C320 0 301 0 282.2 0C263.3 0 244.7 0 225.8 0C207 0 188 0 169.2 0C150.3 0 131.7 0 112.8 0C94 0 75 0 56.2 0C37.3 0 18.7 0 9.3 0L0 0Z" fill="#51375a"></path><path d="M0 85L9.3 86.2C18.7 87.3 37.3 89.7 56.2 87.3C75 85 94 78 112.8 79.5C131.7 81 150.3 91 169.2 93.5C188 96 207 91 225.8 88.8C244.7 86.7 263.3 87.3 282.2 85.8C301 84.3 320 80.7 338.8 78.3C357.7 76 376.3 75 395.2 77.8C414 80.7 433 87.3 451.8 85.8C470.7 84.3 489.3 74.7 508.2 73.2C527 71.7 546 78.3 564.8 82C583.7 85.7 602.3 86.3 621.2 86C640 85.7 659 84.3 677.8 82C696.7 79.7 715.3 76.3 734.2 75C753 73.7 772 74.3 790.8 73.2C809.7 72 828.3 69 847.2 74.7C866 80.3 885 94.7 903.8 101.8C922.7 109 941.3 109 950.7 109L960 109L960 0L950.7 0C941.3 0 922.7 0 903.8 0C885 0 866 0 847.2 0C828.3 0 809.7 0 790.8 0C772 0 753 0 734.2 0C715.3 0 696.7 0 677.8 0C659 0 640 0 621.2 0C602.3 0 583.7 0 564.8 0C546 0 527 0 508.2 0C489.3 0 470.7 0 451.8 0C433 0 414 0 395.2 0C376.3 0 357.7 0 338.8 0C320 0 301 0 282.2 0C263.3 0 244.7 0 225.8 0C207 0 188 0 169.2 0C150.3 0 131.7 0 112.8 0C94 0 75 0 56.2 0C37.3 0 18.7 0 9.3 0L0 0Z" fill="#6a395f"></path><path d="M0 79L9.3 79.2C18.7 79.3 37.3 79.7 56.2 79.7C75 79.7 94 79.3 112.8 81C131.7 82.7 150.3 86.3 169.2 85.3C188 84.3 207 78.7 225.8 73.7C244.7 68.7 263.3 64.3 282.2 61.2C301 58 320 56 338.8 58.5C357.7 61 376.3 68 395.2 72.3C414 76.7 433 78.3 451.8 74.7C470.7 71 489.3 62 508.2 63.8C527 65.7 546 78.3 564.8 78.7C583.7 79 602.3 67 621.2 61.7C640 56.3 659 57.7 677.8 57.8C696.7 58 715.3 57 734.2 59.8C753 62.7 772 69.3 790.8 74.3C809.7 79.3 828.3 82.7 847.2 78.7C866 74.7 885 63.3 903.8 63.3C922.7 63.3 941.3 74.7 950.7 80.3L960 86L960 0L950.7 0C941.3 0 922.7 0 903.8 0C885 0 866 0 847.2 0C828.3 0 809.7 0 790.8 0C772 0 753 0 734.2 0C715.3 0 696.7 0 677.8 0C659 0 640 0 621.2 0C602.3 0 583.7 0 564.8 0C546 0 527 0 508.2 0C489.3 0 470.7 0 451.8 0C433 0 414 0 395.2 0C376.3 0 357.7 0 338.8 0C320 0 301 0 282.2 0C263.3 0 244.7 0 225.8 0C207 0 188 0 169.2 0C150.3 0 131.7 0 112.8 0C94 0 75 0 56.2 0C37.3 0 18.7 0 9.3 0L0 0Z" fill="#84395d"></path><path d="M0 63L9.3 59.5C18.7 56 37.3 49 56.2 51.3C75 53.7 94 65.3 112.8 64.8C131.7 64.3 150.3 51.7 169.2 51C188 50.3 207 61.7 225.8 63.2C244.7 64.7 263.3 56.3 282.2 54.5C301 52.7 320 57.3 338.8 56.7C357.7 56 376.3 50 395.2 51.5C414 53 433 62 451.8 65.7C470.7 69.3 489.3 67.7 508.2 66C527 64.3 546 62.7 564.8 64.2C583.7 65.7 602.3 70.3 621.2 72.5C640 74.7 659 74.3 677.8 70.2C696.7 66 715.3 58 734.2 55.5C753 53 772 56 790.8 60.2C809.7 64.3 828.3 69.7 847.2 68.3C866 67 885 59 903.8 53.7C922.7 48.3 941.3 45.7 950.7 44.3L960 43L960 0L950.7 0C941.3 0 922.7 0 903.8 0C885 0 866 0 847.2 0C828.3 0 809.7 0 790.8 0C772 0 753 0 734.2 0C715.3 0 696.7 0 677.8 0C659 0 640 0 621.2 0C602.3 0 583.7 0 564.8 0C546 0 527 0 508.2 0C489.3 0 470.7 0 451.8 0C433 0 414 0 395.2 0C376.3 0 357.7 0 338.8 0C320 0 301 0 282.2 0C263.3 0 244.7 0 225.8 0C207 0 188 0 169.2 0C150.3 0 131.7 0 112.8 0C94 0 75 0 56.2 0C37.3 0 18.7 0 9.3 0L0 0Z" fill="#9b3c56"></path><path d="M0 55L9.3 53.5C18.7 52 37.3 49 56.2 48.8C75 48.7 94 51.3 112.8 52.5C131.7 53.7 150.3 53.3 169.2 50.7C188 48 207 43 225.8 41C244.7 39 263.3 40 282.2 42.8C301 45.7 320 50.3 338.8 51.3C357.7 52.3 376.3 49.7 395.2 49.3C414 49 433 51 451.8 49.7C470.7 48.3 489.3 43.7 508.2 44.2C527 44.7 546 50.3 564.8 49.5C583.7 48.7 602.3 41.3 621.2 41.7C640 42 659 50 677.8 54.2C696.7 58.3 715.3 58.7 734.2 57.3C753 56 772 53 790.8 53C809.7 53 828.3 56 847.2 55.2C866 54.3 885 49.7 903.8 47.3C922.7 45 941.3 45 950.7 45L960 45L960 0L950.7 0C941.3 0 922.7 0 903.8 0C885 0 866 0 847.2 0C828.3 0 809.7 0 790.8 0C772 0 753 0 734.2 0C715.3 0 696.7 0 677.8 0C659 0 640 0 621.2 0C602.3 0 583.7 0 564.8 0C546 0 527 0 508.2 0C489.3 0 470.7 0 451.8 0C433 0 414 0 395.2 0C376.3 0 357.7 0 338.8 0C320 0 301 0 282.2 0C263.3 0 244.7 0 225.8 0C207 0 188 0 169.2 0C150.3 0 131.7 0 112.8 0C94 0 75 0 56.2 0C37.3 0 18.7 0 9.3 0L0 0Z" fill="#ad4249"></path><path d="M0 34L9.3 32.7C18.7 31.3 37.3 28.7 56.2 30C75 31.3 94 36.7 112.8 37.5C131.7 38.3 150.3 34.7 169.2 32.5C188 30.3 207 29.7 225.8 29.8C244.7 30 263.3 31 282.2 33.3C301 35.7 320 39.3 338.8 37.7C357.7 36 376.3 29 395.2 26.8C414 24.7 433 27.3 451.8 29.7C470.7 32 489.3 34 508.2 36.3C527 38.7 546 41.3 564.8 39.7C583.7 38 602.3 32 621.2 27.5C640 23 659 20 677.8 19C696.7 18 715.3 19 734.2 22.2C753 25.3 772 30.7 790.8 32.2C809.7 33.7 828.3 31.3 847.2 30.7C866 30 885 31 903.8 33.3C922.7 35.7 941.3 39.3 950.7 41.2L960 43L960 0L950.7 0C941.3 0 922.7 0 903.8 0C885 0 866 0 847.2 0C828.3 0 809.7 0 790.8 0C772 0 753 0 734.2 0C715.3 0 696.7 0 677.8 0C659 0 640 0 621.2 0C602.3 0 583.7 0 564.8 0C546 0 527 0 508.2 0C489.3 0 470.7 0 451.8 0C433 0 414 0 395.2 0C376.3 0 357.7 0 338.8 0C320 0 301 0 282.2 0C263.3 0 244.7 0 225.8 0C207 0 188 0 169.2 0C150.3 0 131.7 0 112.8 0C94 0 75 0 56.2 0C37.3 0 18.7 0 9.3 0L0 0Z" fill="#b94f38"></path><path d="M0 22L9.3 22.3C18.7 22.7 37.3 23.3 56.2 22.5C75 21.7 94 19.3 112.8 19.7C131.7 20 150.3 23 169.2 24C188 25 207 24 225.8 22.3C244.7 20.7 263.3 18.3 282.2 19C301 19.7 320 23.3 338.8 22.2C357.7 21 376.3 15 395.2 14.7C414 14.3 433 19.7 451.8 20.3C470.7 21 489.3 17 508.2 14C527 11 546 9 564.8 8.2C583.7 7.3 602.3 7.7 621.2 8.3C640 9 659 10 677.8 11.5C696.7 13 715.3 15 734.2 15.8C753 16.7 772 16.3 790.8 14.8C809.7 13.3 828.3 10.7 847.2 10.5C866 10.3 885 12.7 903.8 13.2C922.7 13.7 941.3 12.3 950.7 11.7L960 11L960 0L950.7 0C941.3 0 922.7 0 903.8 0C885 0 866 0 847.2 0C828.3 0 809.7 0 790.8 0C772 0 753 0 734.2 0C715.3 0 696.7 0 677.8 0C659 0 640 0 621.2 0C602.3 0 583.7 0 564.8 0C546 0 527 0 508.2 0C489.3 0 470.7 0 451.8 0C433 0 414 0 395.2 0C376.3 0 357.7 0 338.8 0C320 0 301 0 282.2 0C263.3 0 244.7 0 225.8 0C207 0 188 0 169.2 0C150.3 0 131.7 0 112.8 0C94 0 75 0 56.2 0C37.3 0 18.7 0 9.3 0L0 0Z" fill="#be6023"></path></svg>